<svg width="22" height="22" viewBox="0 0 22 22" fill="none" xmlns="http://www.w3.org/2000/svg">
<path d="M2.53919 11.9167L1.95894 8.90358C1.94367 8.82397 1.94619 8.74197 1.96632 8.66344C1.98644 8.58492 2.02368 8.51182 2.07536 8.44936C2.12704 8.38691 2.19188 8.33665 2.26526 8.30219C2.33863 8.26772 2.41871 8.2499 2.49977 8.25H19.5012C19.5822 8.25004 19.6622 8.26796 19.7354 8.30248C19.8087 8.337 19.8734 8.38728 19.925 8.44972C19.9766 8.51215 20.0137 8.58521 20.0338 8.66367C20.0539 8.74212 20.0564 8.82405 20.0411 8.90358L19.4609 11.9167M2.53919 11.9167H19.4618L18.8971 15.5833M2.53919 11.9167L3.10294 15.5833M3.10294 15.5833L3.59519 18.7834C3.61512 18.9133 3.68089 19.0318 3.7806 19.1173C3.88031 19.2029 4.00737 19.25 4.13877 19.25H17.8613C17.9927 19.25 18.1197 19.2029 18.2194 19.1173C18.3192 19.0318 18.3849 18.9133 18.4049 18.7834L18.8971 15.5833M3.10294 15.5833H18.8971" stroke="black" stroke-width="1.5"/>
<path d="M7.33337 8.25V4.58333C7.33337 4.0971 7.52653 3.63079 7.87035 3.28697C8.21416 2.94315 8.68048 2.75 9.16671 2.75H12.8334C13.3196 2.75 13.7859 2.94315 14.1297 3.28697C14.4736 3.63079 14.6667 4.0971 14.6667 4.58333V8.25" stroke="black" stroke-width="1.5"/>
</svg>
